<svg t="1730965446623" class="icon" viewBox="0 0 1024 1024" version="1.1" xmlns="http://www.w3.org/2000/svg" p-id="10792" width="200" height="200"><path d="M256 972.8a34.133333 34.133333 0 0 1-34.133333-34.133333V422.4c1.3824-55.0912 21.316267-102.1952 59.272533-140.834133 39.0656-38.4 86.1696-58.3168 140.407467-59.6992h261.973333a34.133333 34.133333 0 0 1 0 68.266666h-261.12c-36.027733 0.9216-66.730667 13.909333-92.9792 39.714134C304.042667 355.669333 291.054933 386.372267 290.133333 423.253333V938.666667a34.133333 34.133333 0 0 1-34.133333 34.133333z m682.666667-682.666667h-84.48a34.133333 34.133333 0 0 1 0-68.266666H938.666667a34.133333 34.133333 0 0 1 0 68.266666z" p-id="10793"></path><path d="M512 785.066667h-168.96a17.066667 17.066667 0 1 1 0-34.133334h127.761067L243.933867 524.066133a17.0496 17.0496 0 1 1 24.132266-24.132266L519.0656 750.933333h82.5344c35.0208-1.314133 65.399467-12.2368 91.9552-33.2288L293.4272 317.559467a17.0496 17.0496 0 1 1 24.132267-24.132267l399.872 399.854933c21.623467-26.658133 32.6144-57.224533 33.501866-92.962133v-81.2544L499.933867 268.066133a17.0496 17.0496 0 1 1 24.132266-24.132266L750.933333 470.801067V85.333333a17.066667 17.066667 0 1 1 34.133334 0v515.413334c-1.211733 48.827733-18.568533 91.067733-51.592534 125.969066a17.851733 17.851733 0 0 1-2.901333 3.857067l-0.256 0.256c-35.3792 34.133333-78.472533 52.3776-128.085333 54.237867H512z m-341.333333 0H85.333333a17.066667 17.066667 0 1 1 0-34.133334h85.333334a17.066667 17.066667 0 1 1 0 34.133334z" p-id="10794"></path></svg>