<svg t="1730965341101" class="icon" viewBox="0 0 1024 1024" version="1.1" xmlns="http://www.w3.org/2000/svg" p-id="9543" width="200" height="200"><path d="M482.304 622.592c-4.096 0-8.192-1.024-11.776-3.072L40.96 390.144c-8.192-4.608-13.312-13.312-12.8-22.528 0.512-9.216 6.144-17.92 14.848-21.504L501.76 145.408c7.168-3.072 15.36-2.56 22.016 1.024l401.408 229.376c8.192 4.608 12.8 13.312 12.288 22.528-0.512 9.216-5.632 17.408-14.336 21.504l-430.08 200.704c-3.584 1.024-7.168 2.048-10.752 2.048z m-373.76-251.904l374.272 199.68 375.808-175.104-349.184-199.68-400.896 175.104z" fill="#666666" p-id="9544"></path><path d="M485.888 880.64c-172.544 0-295.936-60.416-303.616-64-8.192-4.096-13.824-12.8-13.824-22.016v-247.808c0-13.312 10.752-24.576 24.576-24.576s24.576 10.752 24.576 24.576v231.936c56.832 23.552 283.648 104.448 528.896 0v-204.288c0-13.312 10.752-24.576 24.576-24.576 13.824 0 24.576 10.752 24.576 24.576v220.16c0 9.728-5.632 18.432-14.336 22.528-105.472 47.616-206.848 63.488-295.424 63.488z" fill="#666666" p-id="9545"></path><path d="M919.04 679.936c-13.824 0-24.576-10.752-24.576-24.576v-143.36c0-13.312 10.752-24.576 24.576-24.576 13.824 0 24.576 10.752 24.576 24.576v143.36c0 13.312-10.752 24.576-24.576 24.576z" fill="#666666" p-id="9546"></path></svg>