<svg t="1730961999769" class="icon" viewBox="0 0 1024 1024" version="1.1" xmlns="http://www.w3.org/2000/svg" p-id="6619" width="200" height="200"><path d="M575.7 373.2h-65.9v277.6h65.9c48.1 0 83.2-11.3 105.3-33.5 21.6-22.7 32.4-57.8 32.4-105.3 0-48.6-10.8-84.2-32.4-105.8-22.1-22.2-57.2-33-105.3-33z" fill="#A1C837" p-id="6620"></path><path d="M512 64C264.6 64 64 264.6 64 512s200.6 448 448 448 448-200.6 448-448S759.4 64 512 64zM371.1 704.8h-63.2V319.2h63.2v385.6z m358.5-51.9c-32.4 34.6-79.4 51.8-142 51.8H446.7V319.2h140.9c62.6 0 109.6 17.3 142 51.8 30.8 32.4 46.4 79.4 46.4 140.9 0.1 61.1-15.6 108.1-46.4 141z" fill="#A1C837" p-id="6621"></path></svg>