<svg t="1730965754462" class="icon" viewBox="0 0 1024 1024" version="1.1" xmlns="http://www.w3.org/2000/svg" p-id="11793" width="200" height="200"><path d="M512 0.00051a458.831384 458.831384 0 0 0-287.534334 815.700238l4.078501 3.058876 4.078501 3.058876 4.078502 3.058876 4.078501 3.058876 4.078501 3.058875 4.078501 3.058876 4.078501 3.058876 4.078502 3.058876 4.078501 3.058876 4.078501 3.058876 4.078501 3.058876 4.078501 3.058876 4.078502 3.058876 4.078501 3.058875 4.078501 3.058876 4.078501 3.058876 4.078501 3.058876 4.078501 3.058876 4.078502 3.058876 4.078501 3.058876 4.078501 3.058876 4.078501 3.058876 4.078501 3.058875 4.078502 3.058876 4.078501 3.058876 4.078501 3.058876A279.377332 279.377332 0 0 0 359.056205 917.663278l3.568689 3.058876 3.568688 3.058875 3.568689 3.058876 3.568689 2.549064 3.568688 3.058876 3.568689 3.058875 3.568688 3.058876 3.568689 3.058876 3.568688 2.549063 3.568689 3.058876 3.568688 3.058876 3.568689 3.058876 3.568688 3.058876 3.568689 3.058876 3.568688 3.058876 3.568689 3.058876 3.568689 3.058876 3.568688 3.058875 3.568689 3.058876 3.568688 2.549064 3.568689 3.058876 3.568688 3.058875 3.568689 3.058876 3.568688 3.058876 3.568689 3.058876 3.568688 3.058876 3.568689 3.058876 3.568689 3.058876 3.568688 3.058876 6.117752 4.078501a50.981265 50.981265 0 0 0 72.393396 0l6.117752-4.078501 3.568688-3.058876 3.568689-3.058876 3.568688-3.058876 3.568689-3.058876 3.568688-3.058876 3.568689-3.058876 3.568689-3.058876 3.568688-3.058875 3.568689-3.058876 3.568688-2.549064 3.568689-3.058876 3.568688-3.058875 3.568689-3.058876 3.568688-3.058876 3.568689-3.058876 3.568688-3.058876 3.568689-3.058876 3.568689-3.058876 3.568688-3.058876 3.568689-3.058876 3.568688-2.549063 3.568689-3.058876 3.568688-3.058876 3.568689-3.058875 3.568688-3.058876 3.568689-2.549064 3.568688-3.058876 3.568689-3.058875L664.943795 917.663278a279.377332 279.377332 0 0 0 22.941569-16.823818l4.078501-3.058876 4.078501-3.058875 4.078501-3.058876 4.078502-3.058876 4.078501-3.058876 4.078501-3.058876 4.078501-3.058876 4.078501-3.058876 4.078502-3.058876 4.078501-3.058876 4.078501-3.058876 4.078501-3.058875 4.078501-3.058876 4.078502-3.058876 4.078501-3.058876 4.078501-3.058876 4.078501-3.058876 4.078501-3.058876 4.078501-3.058876 4.078502-3.058876 4.078501-3.058875 4.078501-3.058876 4.078501-3.058876 4.078501-3.058876 4.078502-3.058876 4.078501-3.058876A458.831384 458.831384 0 0 0 512 0.00051z m0 662.756443a203.92506 203.92506 0 1 1 203.92506-203.925059 203.92506 203.92506 0 0 1-203.92506 203.925059z" fill="#333333" p-id="11794"></path></svg>