<svg t="1730962135412" class="icon" viewBox="0 0 1024 1024" version="1.1" xmlns="http://www.w3.org/2000/svg" p-id="7596" width="200" height="200"><path d="M353.4 352.5c-18.4 0-33.4 14.9-33.4 33.4 0 18.4 14.9 33.4 33.4 33.4 18.4 0 33.4-14.9 33.4-33.4s-14.9-33.4-33.4-33.4zM502.7 418.4c18.4 0 33.4-14.9 33.5-33.4 0-18.4-14.9-33.4-33.4-33.4-18.4 0-33.4 14.9-33.4 33.4-0.1 18.4 14.8 33.3 33.3 33.4zM587.6 514.1c-7.2-4.1-16-4.1-23.2 0-7.2 4.1-11.6 11.8-11.6 20.1s4.4 16 11.6 20.1c7.2 4.1 16 4.1 23.2 0 7.2-4.1 11.6-11.8 11.6-20.1s-4.4-16-11.6-20.1zM705.4 516c-7.2-4.1-16-4.1-23.2 0-7.2 4.1-11.6 11.8-11.6 20.1s4.4 16 11.6 20.1c7.2 4.2 16 4.2 23.2 0 7.2-4.1 11.6-11.8 11.6-20.1s-4.4-15.9-11.6-20.1z" fill="#515151" p-id="7597"></path><path d="M512 2C230.1 2 2 230.1 2 512s228.1 510 510 510 510-228.1 510-510S793.9 2 512 2z m-87.2 627.7c-26.9 0-48.3-5.6-75.1-11.2l-75.1 37.1 21.3-64c-53.7-37.1-85.3-85.3-85.3-144.7 0-102 96.4-181.8 214.2-181.8 104.7 0 197.5 64 216.1 150.3-6.5-0.9-13.9-0.9-20.4-0.9-102 0-181.8 76-181.8 169.7 0 15.7 2.7 30.6 6.5 44.5-7.4 0.1-13.9 1-20.4 1z m313.4 75.1l15.7 53.7-58.4-32.4c-21.3 5.6-42.7 11.2-64 11.2-102 0-181.8-69.6-181.8-154.8 0-85.3 79.8-154.8 181.8-154.8 96.4 0 181.8 69.6 181.8 154.8 0 47.2-31.5 89.9-75.1 122.3z" fill="#515151" p-id="7598"></path></svg>